# Blender 4.2.1 LTS
# www.blender.org
mtllib briges.mtl
o Cube
v -205.705688 -1.000000 -719.011658
v -205.705688 -0.174260 -719.011658
v -198.239929 -1.000000 -721.486694
v -198.239929 -0.174260 -721.486694
v -0.584408 -1.000000 3.387895
v -0.584408 -0.174260 3.387895
v 6.881351 -1.000000 0.912834
v 6.881351 -0.174260 0.912834
v -0.182033 -6.778019 48.850513
v -0.182033 -5.952280 48.850513
v 6.117420 -6.778019 44.140949
v 6.117420 -5.952280 44.140949
v 404.367920 -8.399612 651.324219
v 404.367920 -7.573872 651.324219
v 410.667389 -8.399612 646.614624
v 410.667389 -7.573872 646.614624
vn -0.3147 -0.0000 -0.9492
vn 0.9620 -0.0000 -0.2731
vn 0.3147 -0.0000 0.9492
vn -0.9620 -0.0000 0.2731
vn -0.0000 -1.0000 -0.0000
vn -0.0000 1.0000 -0.0000
vn -0.5988 -0.0000 -0.8009
vn 0.8302 -0.0000 -0.5575
vn 0.5988 -0.0000 0.8009
vn -0.8302 -0.0000 0.5575
vn -0.0013 -1.0000 -0.0018
vn 0.0013 1.0000 0.0018
vt 0.625000 0.000000
vt 0.375000 0.250000
vt 0.375000 0.000000
vt 0.625000 0.250000
vt 0.375000 0.500000
vt 0.625000 0.500000
vt 0.375000 0.750000
vt 0.625000 0.750000
vt 0.375000 1.000000
vt 0.125000 0.750000
vt 0.125000 0.500000
vt 0.875000 0.750000
vt 0.625000 1.000000
vt 0.875000 0.500000
s 0
f 2/1/1 3/2/1 1/3/1
f 4/4/2 7/5/2 3/2/2
f 8/6/3 5/7/3 7/5/3
f 6/8/4 1/9/4 5/7/4
f 7/5/5 1/10/5 3/11/5
f 8/6/6 2/12/6 6/8/6
f 10/1/7 11/2/7 9/3/7
f 11/2/8 16/6/8 15/5/8
f 16/6/9 13/7/9 15/5/9
f 14/8/10 9/9/10 13/7/10
f 15/5/11 9/10/11 11/11/11
f 16/6/12 10/12/12 14/8/12
f 2/1/1 4/4/1 3/2/1
f 4/4/2 8/6/2 7/5/2
f 8/6/3 6/8/3 5/7/3
f 6/8/4 2/13/4 1/9/4
f 7/5/5 5/7/5 1/10/5
f 8/6/6 4/14/6 2/12/6
f 10/1/7 12/4/7 11/2/7
f 11/2/8 12/4/8 16/6/8
f 16/6/9 14/8/9 13/7/9
f 14/8/10 10/13/10 9/9/10
f 15/5/11 13/7/11 9/10/11
f 16/6/12 12/14/12 10/12/12
