# Blender 4.2.1 LTS
# www.blender.org
mtllib Everland.mtl
o Cube
v 41.112095 8.908700 -18.378042
v 41.112095 11.223125 -18.378042
v 41.255245 8.908700 -17.850780
v 41.255245 11.223125 -17.850780
v 40.584835 8.908700 -18.234892
v 40.584835 11.223125 -18.234892
v 40.727985 8.908700 -17.707632
v 40.727985 11.223125 -17.707632
v 41.107052 8.908700 -18.376673
v 41.107052 9.455047 -18.376673
v 41.250202 8.908700 -17.849411
v 41.250202 9.455047 -17.849411
v 39.550041 8.908700 -17.953949
v 39.550041 9.455047 -17.953949
v 39.693192 8.908700 -17.426689
v 39.693192 9.455047 -17.426689
v 41.107052 10.664444 -18.376673
v 41.107052 11.210792 -18.376673
v 41.250202 10.664444 -17.849411
v 41.250202 11.210792 -17.849411
v 39.550041 10.664444 -17.953949
v 39.550041 11.210792 -17.953949
v 39.693192 10.664444 -17.426689
v 39.693192 11.210792 -17.426689
v 41.107052 9.852577 -18.376673
v 41.107052 10.294373 -18.376673
v 41.250202 9.852577 -17.849411
v 41.250202 10.294373 -17.849411
v 39.550041 9.852577 -17.953949
v 39.550041 10.294373 -17.953949
v 39.693192 9.852577 -17.426689
v 39.693192 10.294373 -17.426689
v 37.974258 8.820222 -17.526129
v 39.067059 10.957890 -17.822821
v 38.117409 8.820222 -16.998867
v 39.210205 10.957890 -17.295559
v 37.494133 9.046021 -17.395775
v 38.586933 11.183688 -17.692469
v 37.637283 9.046021 -16.868515
v 38.730083 11.183688 -17.165209
v 37.790993 8.820222 -16.910248
v 36.698193 10.957890 -16.613554
v 37.647842 8.820222 -17.437508
v 36.555042 10.957890 -17.140816
v 38.271118 9.046021 -17.040600
v 37.178318 11.183688 -16.743908
v 38.127968 9.046021 -17.567860
v 37.035168 11.183688 -17.271168
v 36.127964 8.908700 -17.024864
v 36.127964 11.223125 -17.024864
v 36.271114 8.908700 -16.497604
v 36.271114 11.223125 -16.497604
v 35.600704 8.908700 -16.881716
v 35.600704 11.223125 -16.881716
v 35.743851 8.908700 -16.354454
v 35.743851 11.223125 -16.354454
v 36.122917 8.908700 -17.023495
v 36.122917 9.455047 -17.023495
v 36.266068 8.908700 -16.496235
v 36.266068 9.455047 -16.496235
v 34.565907 8.908700 -16.600771
v 34.565907 9.455047 -16.600771
v 34.709057 8.908700 -16.073511
v 34.709057 9.455047 -16.073511
v 36.122917 10.664444 -17.023495
v 36.122917 11.210792 -17.023495
v 36.266068 10.664444 -16.496235
v 36.266068 11.210792 -16.496235
v 34.565907 10.664444 -16.600771
v 34.565907 11.210792 -16.600771
v 34.709057 10.664444 -16.073511
v 34.709057 11.210792 -16.073511
v 36.122917 9.852577 -17.023495
v 36.122917 10.294373 -17.023495
v 36.266068 9.852577 -16.496235
v 36.266068 10.294373 -16.496235
v 34.565907 9.852577 -16.600771
v 34.565907 10.294373 -16.600771
v 34.709057 9.852577 -16.073511
v 34.709057 10.294373 -16.073511
v 33.945786 8.908700 -16.432411
v 33.945786 11.110239 -16.432411
v 34.088936 8.908700 -15.905150
v 34.088936 11.110239 -15.905150
v 33.418526 8.908700 -16.289261
v 33.418526 11.110239 -16.289261
v 33.561676 8.908700 -15.762000
v 33.561676 11.110239 -15.762000
v 33.907326 10.664444 -16.421968
v 33.907326 11.210792 -16.421968
v 34.050476 10.664444 -15.894708
v 34.050476 11.210792 -15.894708
v 32.350315 10.664444 -15.999245
v 32.350315 11.210792 -15.999245
v 32.493462 10.664444 -15.471984
v 32.493462 11.210792 -15.471984
v 32.489429 11.223125 -15.470889
v 32.489429 10.077065 -15.470889
v 32.346279 11.223125 -15.998150
v 32.346279 10.077065 -15.998150
v 33.016689 11.223125 -15.614038
v 33.016689 10.077065 -15.614038
v 32.873543 11.223125 -16.141298
v 32.873543 10.077065 -16.141298
v 33.907326 9.788443 -16.421968
v 33.907326 10.334790 -16.421968
v 34.050476 9.788443 -15.894708
v 34.050476 10.334790 -15.894708
v 32.350315 9.788443 -15.999245
v 32.350315 10.334790 -15.999245
v 32.493462 9.788443 -15.471984
v 32.493462 10.334790 -15.471984
v 33.952438 10.012036 -16.434217
v 33.532547 10.342479 -16.320217
v 34.095589 10.012036 -15.906956
v 33.675697 10.342479 -15.792957
v 32.721260 8.816138 -16.079056
v 32.301369 9.146581 -15.965057
v 32.864410 8.816138 -15.551795
v 32.444519 9.146581 -15.437797
v 31.594557 8.908700 -15.794059
v 31.594557 11.110239 -15.794059
v 31.737705 8.908700 -15.266798
v 31.737705 11.110239 -15.266798
v 31.067295 8.908700 -15.650908
v 31.067295 11.110239 -15.650908
v 31.210445 8.908700 -15.123649
v 31.210445 11.110239 -15.123649
v 31.552195 8.908700 -15.782557
v 31.552195 9.455047 -15.782557
v 31.695343 8.908700 -15.255297
v 31.695343 9.455047 -15.255297
v 29.995184 8.908700 -15.359834
v 29.995184 9.455047 -15.359834
v 30.138332 8.908700 -14.832573
v 30.138332 9.455047 -14.832573
v 28.215988 11.183688 -14.876787
v 27.123188 9.046021 -14.580095
v 28.359138 11.183688 -14.349526
v 27.266338 9.046021 -14.052835
v 28.696114 10.957890 -15.007140
v 27.603310 8.820222 -14.710447
v 28.839262 10.957890 -14.479879
v 27.746460 8.820222 -14.183187
v 28.685551 11.183688 -14.438148
v 29.778353 9.046021 -14.734839
v 28.542400 11.183688 -14.965407
v 29.635202 9.046021 -15.262100
v 28.205427 10.957890 -14.307795
v 29.298229 8.820222 -14.604487
v 28.062277 10.957890 -14.835055
v 29.155079 8.820222 -15.131748
v 28.922886 9.282765 -15.068707
v 28.922886 9.829113 -15.068707
v 29.066034 9.282765 -14.541447
v 29.066034 9.829113 -14.541447
v 27.757719 9.282765 -14.752369
v 27.757719 9.829113 -14.752369
v 27.900867 9.282765 -14.225108
v 27.900867 9.829113 -14.225108
v 26.726234 8.908700 -14.472323
v 26.726234 11.110239 -14.472323
v 26.869385 8.908700 -13.945063
v 26.869385 11.110239 -13.945063
v 26.198975 8.908700 -14.329174
v 26.198975 11.110239 -14.329174
v 26.342123 8.908700 -13.801913
v 26.342123 11.110239 -13.801913
v 24.930027 8.908700 -13.984658
v 24.930027 11.110239 -13.984658
v 25.073175 8.908700 -13.457398
v 25.073175 11.110239 -13.457398
v 24.402765 8.908700 -13.841509
v 24.402765 11.110239 -13.841509
v 24.545916 8.908700 -13.314248
v 24.545916 11.110239 -13.314248
v 24.992283 9.036001 -14.001561
v 26.489611 10.597898 -14.408081
v 25.135431 9.036001 -13.474300
v 26.632759 10.597898 -13.880820
v 24.618214 9.421040 -13.900002
v 26.115541 10.982937 -14.306522
v 24.761364 9.421040 -13.372742
v 26.258692 10.982937 -13.779262
v 23.815603 8.908700 -13.682096
v 23.815603 11.223125 -13.682096
v 23.958752 8.908700 -13.154835
v 23.958752 11.223125 -13.154835
v 23.288342 8.908700 -13.538946
v 23.288342 11.223125 -13.538946
v 23.431492 8.908700 -13.011685
v 23.431492 11.223125 -13.011685
v 23.810558 8.908700 -13.680726
v 23.810558 9.455047 -13.680726
v 23.953707 8.908700 -13.153465
v 23.953707 9.455047 -13.153465
v 22.253548 8.908700 -13.258002
v 22.253548 9.455047 -13.258002
v 22.396698 8.908700 -12.730742
v 22.396698 9.455047 -12.730742
v 23.810558 10.664444 -13.680726
v 23.810558 11.210792 -13.680726
v 23.953707 10.664444 -13.153465
v 23.953707 11.210792 -13.153465
v 22.253548 10.664444 -13.258002
v 22.253548 11.210792 -13.258002
v 22.396698 10.664444 -12.730742
v 22.396698 11.210792 -12.730742
v 22.587288 9.454229 -13.348612
v 22.587288 10.690616 -13.348612
v 22.730438 9.454229 -12.821352
v 22.730438 10.690616 -12.821352
v 22.060028 9.454229 -13.205462
v 22.060028 10.690616 -13.205462
v 22.203178 9.454229 -12.678202
v 22.203178 10.690616 -12.678202
vn 0.9651 -0.0000 -0.2620
vn 0.2620 -0.0000 0.9651
vn -0.9651 -0.0000 0.2620
vn -0.2620 -0.0000 -0.9651
vn -0.0000 -1.0000 -0.0000
vn -0.0000 1.0000 -0.0000
vn 0.8528 -0.4681 -0.2315
vn -0.8528 0.4681 0.2315
vn -0.3988 -0.9106 0.1083
vn 0.3988 0.9106 -0.1083
vn -0.8528 -0.4681 0.2315
vn 0.8528 0.4681 -0.2315
vn 0.3988 -0.9106 -0.1083
vn -0.3988 0.9106 0.1083
vn 0.5837 0.7964 -0.1585
vn 0.2688 0.0093 0.9631
vn -0.5837 -0.7964 0.1585
vn -0.2688 -0.0093 -0.9631
vn 0.6585 -0.7310 -0.1788
vn -0.6585 0.7310 0.1788
vn -0.3989 -0.9106 0.1083
vn -0.3989 0.9106 0.1083
vn 0.6847 -0.7047 -0.1859
vn -0.6847 0.7047 0.1859
vn -0.6801 -0.7095 0.1847
vn 0.6801 0.7095 -0.1847
vn 0.3989 0.9106 -0.1083
vt 0.625000 0.000000
vt 0.375000 0.250000
vt 0.375000 0.000000
vt 0.625000 0.250000
vt 0.375000 0.500000
vt 0.625000 0.500000
vt 0.375000 0.750000
vt 0.625000 0.750000
vt 0.375000 1.000000
vt 0.125000 0.750000
vt 0.125000 0.500000
vt 0.875000 0.500000
vt 0.625000 1.000000
vt 0.875000 0.750000
s 0
f 2/1/1 3/2/1 1/3/1
f 4/4/2 7/5/2 3/2/2
f 8/6/3 5/7/3 7/5/3
f 6/8/4 1/9/4 5/7/4
f 7/5/5 1/10/5 3/11/5
f 4/12/6 6/8/6 8/6/6
f 10/1/1 11/2/1 9/3/1
f 12/4/2 15/5/2 11/2/2
f 16/6/3 13/7/3 15/5/3
f 14/8/4 9/9/4 13/7/4
f 15/5/5 9/10/5 11/11/5
f 12/12/6 14/8/6 16/6/6
f 18/1/1 19/2/1 17/3/1
f 20/4/2 23/5/2 19/2/2
f 24/6/3 21/7/3 23/5/3
f 22/8/4 17/9/4 21/7/4
f 23/5/5 17/10/5 19/11/5
f 20/12/6 22/8/6 24/6/6
f 26/1/1 27/2/1 25/3/1
f 28/4/2 31/5/2 27/2/2
f 32/6/3 29/7/3 31/5/3
f 30/8/4 25/9/4 29/7/4
f 31/5/5 25/10/5 27/11/5
f 28/12/6 30/8/6 32/6/6
f 34/1/7 35/2/7 33/3/7
f 35/2/2 40/6/2 39/5/2
f 40/6/8 37/7/8 39/5/8
f 38/8/4 33/9/4 37/7/4
f 39/5/9 33/10/9 35/11/9
f 36/12/10 38/8/10 40/6/10
f 41/3/11 44/4/11 43/2/11
f 43/2/4 48/6/4 47/5/4
f 48/6/12 45/7/12 47/5/12
f 46/8/2 41/9/2 45/7/2
f 47/5/13 41/10/13 43/11/13
f 44/12/14 46/8/14 48/6/14
f 50/1/1 51/2/1 49/3/1
f 52/4/2 55/5/2 51/2/2
f 56/6/3 53/7/3 55/5/3
f 54/8/4 49/9/4 53/7/4
f 55/5/5 49/10/5 51/11/5
f 52/12/6 54/8/6 56/6/6
f 58/1/1 59/2/1 57/3/1
f 60/4/2 63/5/2 59/2/2
f 64/6/3 61/7/3 63/5/3
f 62/8/4 57/9/4 61/7/4
f 63/5/5 57/10/5 59/11/5
f 60/12/6 62/8/6 64/6/6
f 66/1/1 67/2/1 65/3/1
f 68/4/2 71/5/2 67/2/2
f 72/6/3 69/7/3 71/5/3
f 70/8/4 65/9/4 69/7/4
f 71/5/5 65/10/5 67/11/5
f 68/12/6 70/8/6 72/6/6
f 74/1/1 75/2/1 73/3/1
f 76/4/2 79/5/2 75/2/2
f 80/6/3 77/7/3 79/5/3
f 78/8/4 73/9/4 77/7/4
f 79/5/5 73/10/5 75/11/5
f 76/12/6 78/8/6 80/6/6
f 82/1/1 83/2/1 81/3/1
f 84/4/2 87/5/2 83/2/2
f 88/6/3 85/7/3 87/5/3
f 86/8/4 81/9/4 85/7/4
f 87/5/5 81/10/5 83/11/5
f 84/12/6 86/8/6 88/6/6
f 90/1/1 91/2/1 89/3/1
f 92/4/2 95/5/2 91/2/2
f 96/6/3 93/7/3 95/5/3
f 94/8/4 89/9/4 93/7/4
f 95/5/5 89/10/5 91/11/5
f 92/12/6 94/8/6 96/6/6
f 98/5/5 104/10/5 102/11/5
f 101/4/2 98/5/2 102/2/2
f 103/1/1 102/2/1 104/3/1
f 99/8/4 104/9/4 100/7/4
f 101/12/6 99/8/6 97/6/6
f 97/6/3 100/7/3 98/5/3
f 106/1/1 107/2/1 105/3/1
f 108/4/2 111/5/2 107/2/2
f 112/6/3 109/7/3 111/5/3
f 110/8/4 105/9/4 109/7/4
f 111/5/5 105/10/5 107/11/5
f 108/12/6 110/8/6 112/6/6
f 114/1/15 115/2/15 113/3/15
f 116/4/16 119/5/16 115/2/16
f 120/6/17 117/7/17 119/5/17
f 117/7/18 114/13/18 113/9/18
f 115/11/19 117/7/19 113/10/19
f 116/12/20 118/8/20 120/6/20
f 122/1/1 123/2/1 121/3/1
f 124/4/2 127/5/2 123/2/2
f 128/6/3 125/7/3 127/5/3
f 126/8/4 121/9/4 125/7/4
f 127/5/5 121/10/5 123/11/5
f 124/12/6 126/8/6 128/6/6
f 130/1/1 131/2/1 129/3/1
f 132/4/2 135/5/2 131/2/2
f 136/6/3 133/7/3 135/5/3
f 134/8/4 129/9/4 133/7/4
f 135/5/5 129/10/5 131/11/5
f 132/12/6 134/8/6 136/6/6
f 138/1/8 139/2/8 137/3/8
f 139/2/2 144/6/2 143/5/2
f 144/6/7 141/7/7 143/5/7
f 142/8/4 137/9/4 141/7/4
f 143/5/10 137/10/10 139/11/10
f 140/12/21 142/8/21 144/6/21
f 146/1/12 147/2/12 145/3/12
f 147/2/4 152/6/4 151/5/4
f 152/6/11 149/7/11 151/5/11
f 150/8/2 145/9/2 149/7/2
f 151/5/22 145/10/22 147/11/22
f 148/12/13 150/8/13 152/6/13
f 154/1/1 155/2/1 153/3/1
f 156/4/2 159/5/2 155/2/2
f 160/6/3 157/7/3 159/5/3
f 158/8/4 153/9/4 157/7/4
f 159/5/5 153/10/5 155/11/5
f 156/12/6 158/8/6 160/6/6
f 162/1/1 163/2/1 161/3/1
f 164/4/2 167/5/2 163/2/2
f 168/6/3 165/7/3 167/5/3
f 166/8/4 161/9/4 165/7/4
f 167/5/5 161/10/5 163/11/5
f 164/12/6 166/8/6 168/6/6
f 170/1/1 171/2/1 169/3/1
f 172/4/2 175/5/2 171/2/2
f 176/6/3 173/7/3 175/5/3
f 174/8/4 169/9/4 173/7/4
f 175/5/5 169/10/5 171/11/5
f 172/12/6 174/8/6 176/6/6
f 178/1/23 179/2/23 177/3/23
f 180/4/2 183/5/2 179/2/2
f 184/6/24 181/7/24 183/5/24
f 181/7/4 178/13/4 177/9/4
f 183/5/25 177/10/25 179/11/25
f 180/12/26 182/8/26 184/6/26
f 186/1/1 187/2/1 185/3/1
f 188/4/2 191/5/2 187/2/2
f 192/6/3 189/7/3 191/5/3
f 190/8/4 185/9/4 189/7/4
f 191/5/5 185/10/5 187/11/5
f 188/12/6 190/8/6 192/6/6
f 194/1/1 195/2/1 193/3/1
f 196/4/2 199/5/2 195/2/2
f 200/6/3 197/7/3 199/5/3
f 198/8/4 193/9/4 197/7/4
f 199/5/5 193/10/5 195/11/5
f 196/12/6 198/8/6 200/6/6
f 202/1/1 203/2/1 201/3/1
f 204/4/2 207/5/2 203/2/2
f 208/6/3 205/7/3 207/5/3
f 206/8/4 201/9/4 205/7/4
f 207/5/5 201/10/5 203/11/5
f 204/12/6 206/8/6 208/6/6
f 210/1/1 211/2/1 209/3/1
f 212/4/2 215/5/2 211/2/2
f 216/6/3 213/7/3 215/5/3
f 214/8/4 209/9/4 213/7/4
f 215/5/5 209/10/5 211/11/5
f 212/12/6 214/8/6 216/6/6
f 2/1/1 4/4/1 3/2/1
f 4/4/2 8/6/2 7/5/2
f 8/6/3 6/8/3 5/7/3
f 6/8/4 2/13/4 1/9/4
f 7/5/5 5/7/5 1/10/5
f 4/12/6 2/14/6 6/8/6
f 10/1/1 12/4/1 11/2/1
f 12/4/2 16/6/2 15/5/2
f 16/6/3 14/8/3 13/7/3
f 14/8/4 10/13/4 9/9/4
f 15/5/5 13/7/5 9/10/5
f 12/12/6 10/14/6 14/8/6
f 18/1/1 20/4/1 19/2/1
f 20/4/2 24/6/2 23/5/2
f 24/6/3 22/8/3 21/7/3
f 22/8/4 18/13/4 17/9/4
f 23/5/5 21/7/5 17/10/5
f 20/12/6 18/14/6 22/8/6
f 26/1/1 28/4/1 27/2/1
f 28/4/2 32/6/2 31/5/2
f 32/6/3 30/8/3 29/7/3
f 30/8/4 26/13/4 25/9/4
f 31/5/5 29/7/5 25/10/5
f 28/12/6 26/14/6 30/8/6
f 34/1/7 36/4/7 35/2/7
f 35/2/2 36/4/2 40/6/2
f 40/6/8 38/8/8 37/7/8
f 38/8/4 34/13/4 33/9/4
f 39/5/9 37/7/9 33/10/9
f 36/12/27 34/14/27 38/8/27
f 41/3/11 42/1/11 44/4/11
f 43/2/4 44/4/4 48/6/4
f 48/6/12 46/8/12 45/7/12
f 46/8/2 42/13/2 41/9/2
f 47/5/13 45/7/13 41/10/13
f 44/12/14 42/14/14 46/8/14
f 50/1/1 52/4/1 51/2/1
f 52/4/2 56/6/2 55/5/2
f 56/6/3 54/8/3 53/7/3
f 54/8/4 50/13/4 49/9/4
f 55/5/5 53/7/5 49/10/5
f 52/12/6 50/14/6 54/8/6
f 58/1/1 60/4/1 59/2/1
f 60/4/2 64/6/2 63/5/2
f 64/6/3 62/8/3 61/7/3
f 62/8/4 58/13/4 57/9/4
f 63/5/5 61/7/5 57/10/5
f 60/12/6 58/14/6 62/8/6
f 66/1/1 68/4/1 67/2/1
f 68/4/2 72/6/2 71/5/2
f 72/6/3 70/8/3 69/7/3
f 70/8/4 66/13/4 65/9/4
f 71/5/5 69/7/5 65/10/5
f 68/12/6 66/14/6 70/8/6
f 74/1/1 76/4/1 75/2/1
f 76/4/2 80/6/2 79/5/2
f 80/6/3 78/8/3 77/7/3
f 78/8/4 74/13/4 73/9/4
f 79/5/5 77/7/5 73/10/5
f 76/12/6 74/14/6 78/8/6
f 82/1/1 84/4/1 83/2/1
f 84/4/2 88/6/2 87/5/2
f 88/6/3 86/8/3 85/7/3
f 86/8/4 82/13/4 81/9/4
f 87/5/5 85/7/5 81/10/5
f 84/12/6 82/14/6 86/8/6
f 90/1/1 92/4/1 91/2/1
f 92/4/2 96/6/2 95/5/2
f 96/6/3 94/8/3 93/7/3
f 94/8/4 90/13/4 89/9/4
f 95/5/5 93/7/5 89/10/5
f 92/12/6 90/14/6 94/8/6
f 98/5/5 100/7/5 104/10/5
f 101/4/2 97/6/2 98/5/2
f 103/1/1 101/4/1 102/2/1
f 99/8/4 103/13/4 104/9/4
f 101/12/6 103/14/6 99/8/6
f 97/6/3 99/8/3 100/7/3
f 106/1/1 108/4/1 107/2/1
f 108/4/2 112/6/2 111/5/2
f 112/6/3 110/8/3 109/7/3
f 110/8/4 106/13/4 105/9/4
f 111/5/5 109/7/5 105/10/5
f 108/12/6 106/14/6 110/8/6
f 114/1/15 116/4/15 115/2/15
f 116/4/16 120/6/16 119/5/16
f 120/6/17 118/8/17 117/7/17
f 117/7/18 118/8/18 114/13/18
f 115/11/19 119/5/19 117/7/19
f 116/12/20 114/14/20 118/8/20
f 122/1/1 124/4/1 123/2/1
f 124/4/2 128/6/2 127/5/2
f 128/6/3 126/8/3 125/7/3
f 126/8/4 122/13/4 121/9/4
f 127/5/5 125/7/5 121/10/5
f 124/12/6 122/14/6 126/8/6
f 130/1/1 132/4/1 131/2/1
f 132/4/2 136/6/2 135/5/2
f 136/6/3 134/8/3 133/7/3
f 134/8/4 130/13/4 129/9/4
f 135/5/5 133/7/5 129/10/5
f 132/12/6 130/14/6 134/8/6
f 138/1/8 140/4/8 139/2/8
f 139/2/2 140/4/2 144/6/2
f 144/6/7 142/8/7 141/7/7
f 142/8/4 138/13/4 137/9/4
f 143/5/10 141/7/10 137/10/10
f 140/12/21 138/14/21 142/8/21
f 146/1/12 148/4/12 147/2/12
f 147/2/4 148/4/4 152/6/4
f 152/6/11 150/8/11 149/7/11
f 150/8/2 146/13/2 145/9/2
f 151/5/14 149/7/14 145/10/14
f 148/12/13 146/14/13 150/8/13
f 154/1/1 156/4/1 155/2/1
f 156/4/2 160/6/2 159/5/2
f 160/6/3 158/8/3 157/7/3
f 158/8/4 154/13/4 153/9/4
f 159/5/5 157/7/5 153/10/5
f 156/12/6 154/14/6 158/8/6
f 162/1/1 164/4/1 163/2/1
f 164/4/2 168/6/2 167/5/2
f 168/6/3 166/8/3 165/7/3
f 166/8/4 162/13/4 161/9/4
f 167/5/5 165/7/5 161/10/5
f 164/12/6 162/14/6 166/8/6
f 170/1/1 172/4/1 171/2/1
f 172/4/2 176/6/2 175/5/2
f 176/6/3 174/8/3 173/7/3
f 174/8/4 170/13/4 169/9/4
f 175/5/5 173/7/5 169/10/5
f 172/12/6 170/14/6 174/8/6
f 178/1/23 180/4/23 179/2/23
f 180/4/2 184/6/2 183/5/2
f 184/6/24 182/8/24 181/7/24
f 181/7/4 182/8/4 178/13/4
f 183/5/25 181/7/25 177/10/25
f 180/12/26 178/14/26 182/8/26
f 186/1/1 188/4/1 187/2/1
f 188/4/2 192/6/2 191/5/2
f 192/6/3 190/8/3 189/7/3
f 190/8/4 186/13/4 185/9/4
f 191/5/5 189/7/5 185/10/5
f 188/12/6 186/14/6 190/8/6
f 194/1/1 196/4/1 195/2/1
f 196/4/2 200/6/2 199/5/2
f 200/6/3 198/8/3 197/7/3
f 198/8/4 194/13/4 193/9/4
f 199/5/5 197/7/5 193/10/5
f 196/12/6 194/14/6 198/8/6
f 202/1/1 204/4/1 203/2/1
f 204/4/2 208/6/2 207/5/2
f 208/6/3 206/8/3 205/7/3
f 206/8/4 202/13/4 201/9/4
f 207/5/5 205/7/5 201/10/5
f 204/12/6 202/14/6 206/8/6
f 210/1/1 212/4/1 211/2/1
f 212/4/2 216/6/2 215/5/2
f 216/6/3 214/8/3 213/7/3
f 214/8/4 210/13/4 209/9/4
f 215/5/5 213/7/5 209/10/5
f 212/12/6 210/14/6 214/8/6
