# Blender 4.2.1 LTS
# www.blender.org
mtllib gems.mtl
o Cylinder
v 0.000000 2.054468 0.000000
v 0.000000 0.000000 1.000000
v -0.866025 0.000000 0.500000
v -0.866025 0.000000 -0.500000
v 0.000000 0.000000 -1.000000
v 0.866025 0.000000 -0.500000
v 0.866025 0.000000 0.500000
v 0.000000 -2.054468 0.000000
vn -0.4607 0.3884 0.7980
vn -0.9215 0.3884 -0.0000
vn -0.4607 0.3884 -0.7980
vn 0.4607 0.3884 -0.7980
vn 0.9215 0.3884 -0.0000
vn 0.4607 0.3884 0.7980
vn -0.4607 -0.3884 0.7980
vn -0.9215 -0.3884 -0.0000
vn -0.4607 -0.3884 -0.7980
vn 0.4607 -0.3884 -0.7980
vn 0.9215 -0.3884 -0.0000
vn 0.4607 -0.3884 0.7980
vt 1.000000 0.750000
vt 0.833333 1.000000
vt 0.833333 0.750000
vt 0.666667 1.000000
vt 0.666667 0.750000
vt 0.500000 1.000000
vt 0.500000 0.750000
vt 0.333333 1.000000
vt 0.333333 0.750000
vt 0.166667 1.000000
vt 0.166667 0.750000
vt -0.000000 1.000000
vt -0.000000 0.750000
s 0
f 2/1/1 1/2/1 3/3/1
f 3/3/2 1/4/2 4/5/2
f 4/5/3 1/6/3 5/7/3
f 5/7/4 1/8/4 6/9/4
f 6/9/5 1/10/5 7/11/5
f 7/11/6 1/12/6 2/13/6
f 2/1/7 3/3/7 8/2/7
f 3/3/8 4/5/8 8/4/8
f 4/5/9 5/7/9 8/6/9
f 5/7/10 6/9/10 8/8/10
f 6/9/11 7/11/11 8/10/11
f 7/11/12 2/13/12 8/12/12
