# Blender 4.2.1 LTS
# www.blender.org
mtllib shrine.mtl
o Cylinder
v -2.968859 -1.000000 -2.166677
v -2.968859 3.669130 -2.166677
v -3.919915 -1.000000 -2.857660
v -3.919915 3.669130 -2.857660
v -3.556644 -1.000000 -3.975694
v -3.556644 3.669130 -3.975694
v -2.381073 -1.000000 -3.975694
v -2.381073 3.669130 -3.975694
v -2.017802 -1.000000 -2.857660
v -2.017802 3.669130 -2.857660
v -2.487997 -2.924914 -2.370424
v -3.350258 -2.924914 -2.920621
v -3.020904 -2.924914 -3.810859
v -1.955090 -2.924914 -3.810859
v -1.625736 -2.924914 -2.920621
v -3.261753 5.207097 -3.035509
v -2.523965 5.207097 -2.499476
v -2.979943 5.207097 -3.902830
v -2.067988 5.207097 -3.902830
v -1.786179 5.207097 -3.035509
v -2.968859 -1.000000 3.685977
v -2.968859 3.669130 3.685977
v -3.919915 -1.000000 2.994994
v -3.919915 3.669130 2.994994
v -3.556644 -1.000000 1.876959
v -3.556644 3.669130 1.876959
v -2.381073 -1.000000 1.876959
v -2.381073 3.669130 1.876959
v -2.017802 -1.000000 2.994994
v -2.017802 3.669130 2.994994
v -2.487997 -2.924914 3.482229
v -3.350258 -2.924914 2.932032
v -3.020904 -2.924914 2.041794
v -1.955090 -2.924914 2.041794
v -1.625736 -2.924914 2.932032
v -4.934515 5.538539 2.759044
v -4.196728 5.538539 3.295078
v -4.652705 5.538539 1.891724
v -3.740751 5.538539 1.891724
v -3.458941 5.538539 2.759044
v 3.107241 -1.000000 -2.166677
v 3.107241 3.669130 -2.166677
v 2.156184 -1.000000 -2.857660
v 2.156184 3.669130 -2.857660
v 2.519455 -1.000000 -3.975694
v 2.519455 3.669130 -3.975694
v 3.695026 -1.000000 -3.975694
v 3.695026 3.669130 -3.975694
v 4.058297 -1.000000 -2.857660
v 4.058297 3.669130 -2.857660
v 3.588102 -2.924914 -2.370424
v 2.725841 -2.924914 -2.920621
v 3.055195 -2.924914 -3.810859
v 4.121009 -2.924914 -3.810859
v 4.450364 -2.924914 -2.920621
v 2.239614 4.466731 -3.196599
v 2.977401 4.466731 -2.660566
v 2.521424 4.466731 -4.063920
v 3.433378 4.466731 -4.063920
v 3.715188 4.466731 -3.196599
v 3.107241 -1.000000 3.685977
v 3.107241 3.669130 3.685977
v 2.156184 -1.000000 2.994994
v 2.156184 3.669130 2.994994
v 2.519455 -1.000000 1.876959
v 2.519455 3.669130 1.876959
v 3.695026 -1.000000 1.876959
v 3.695026 3.669130 1.876959
v 4.058297 -1.000000 2.994994
v 4.058297 3.669130 2.994994
v 3.588102 -2.924914 3.482229
v 2.725841 -2.924914 2.932032
v 3.055195 -2.924914 2.041794
v 4.121009 -2.924914 2.041794
v 4.450364 -2.924914 2.932032
v 2.341529 4.460646 2.665739
v 3.079316 4.460646 3.201772
v 2.623338 4.460646 1.798419
v 3.535293 4.460646 1.798419
v 3.817103 4.460646 2.665739
v 4.410132 -1.804209 -4.410133
v 1.091624 -0.936168 -1.091624
v 4.410132 -1.804209 4.410132
v 1.091624 -0.936168 1.091624
v -4.410132 -1.804209 -4.410133
v -1.091624 -0.936168 -1.091624
v -4.410132 -1.804209 4.410132
v -1.091624 -0.936168 1.091624
v 5.405588 -2.690123 -5.405588
v 5.405588 -1.822082 -5.405588
v 5.405588 -2.690123 5.405588
v 5.405588 -1.822082 5.405588
v -5.405588 -2.690123 -5.405588
v -5.405588 -1.822082 -5.405588
v -5.405588 -2.690123 5.405588
v -5.405588 -1.822082 5.405588
v 4.410132 -0.936168 -4.410133
v 4.410132 -0.936168 4.410132
v -4.410132 -0.936168 4.410132
v -4.410132 -0.936168 -4.410133
v 1.091624 -0.208081 -1.091624
v 1.091624 -0.208081 1.091624
v -1.091624 -0.208081 1.091624
v -1.091624 -0.208081 -1.091624
v 0.876334 -0.023138 -0.876334
v 0.876334 -0.023138 0.876334
v -0.876334 -0.023138 0.876334
v -0.876334 -0.023138 -0.876334
vn -0.5878 -0.0000 0.8090
vn -0.9511 -0.0000 -0.3090
vn -0.0000 -0.0000 -1.0000
vn 0.5878 0.0050 0.8090
vn 0.9511 -0.0000 -0.3090
vn 0.5878 -0.0000 0.8090
vn 0.9354 0.1810 -0.3039
vn -0.0000 -1.0000 -0.0000
vn -0.9179 -0.2619 -0.2982
vn 0.5361 0.0817 0.8402
vn -0.5249 -0.2182 0.8227
vn -0.0000 -0.0853 -0.9964
vn -0.0000 1.0000 -0.0000
vn -0.5556 0.3262 0.7648
vn -0.0000 0.0473 -0.9989
vn 0.9362 -0.1762 -0.3042
vn -0.8916 0.3481 -0.2897
vn 0.5139 0.4854 0.7073
vn -0.5744 -0.2120 0.7906
vn -0.0000 0.0079 -1.0000
vn 0.7813 0.5702 -0.2538
vn -0.8315 -0.4854 -0.2702
vn 0.5048 0.5124 0.6948
vn -0.5447 0.3756 0.7498
vn -0.0000 -0.1099 -0.9939
vn 0.9164 0.2677 -0.2977
vn -0.9506 -0.0318 -0.3089
vn 0.5224 0.4583 0.7191
vn -0.5311 0.4284 0.7310
vn -0.0000 -0.0987 -0.9951
vn 0.9389 0.1592 -0.3051
vn -0.9469 0.0937 -0.3077
vn 1.0000 -0.0000 -0.0000
vn -0.0000 -0.0000 1.0000
vn -1.0000 -0.0000 -0.0000
vn -0.0000 0.7585 -0.6516
vn -0.0000 0.7585 0.6516
vn -0.6516 0.7585 -0.0000
vn 0.6516 0.7585 -0.0000
vn 0.9192 0.1984 -0.3401
vn -0.9006 -0.2792 -0.3332
vn 0.5867 0.0611 0.8075
vn -0.5763 -0.1965 0.7932
vt 1.000000 1.000000
vt 0.800000 0.500000
vt 1.000000 0.500000
vt 0.800000 1.000000
vt 0.600000 0.500000
vt 0.600000 1.000000
vt 0.400000 0.500000
vt 0.200000 1.000000
vt 0.000000 1.000000
vt 0.400000 1.000000
vt 0.200000 0.500000
vt 0.000000 0.500000
vt 0.978254 0.324164
vt 0.608932 0.055836
vt 0.521746 0.324164
vt 0.625000 0.000000
vt 0.375000 0.250000
vt 0.375000 0.000000
vt 0.625000 0.250000
vt 0.375000 0.500000
vt 0.625000 0.500000
vt 0.375000 0.750000
vt 0.625000 0.750000
vt 0.375000 1.000000
vt 0.125000 0.750000
vt 0.125000 0.500000
vt 0.719059 0.594059
vt 0.719059 0.655941
vt 0.875000 0.500000
vt 0.780941 0.594059
vt 0.875000 0.750000
vt 0.780941 0.655941
vt 0.750000 0.490000
vt 0.891068 0.055836
vt 0.625000 1.000000
s 0
f 2/1/1 3/2/1 1/3/1
f 4/4/2 5/5/2 3/2/2
f 6/6/3 7/7/3 5/5/3
f 10/8/4 17/9/4 2/9/4
f 8/10/5 9/11/5 7/7/5
f 10/8/6 1/12/6 9/11/6
f 9/11/7 14/7/7 7/7/7
f 12/13/8 14/14/8 15/15/8
f 5/5/9 12/2/9 3/2/9
f 9/11/10 11/12/10 15/11/10
f 1/3/11 12/2/11 11/3/11
f 7/7/12 13/5/12 5/5/12
f 17/1/13 19/10/13 18/6/13
f 2/1/14 16/4/14 4/4/14
f 8/10/15 18/6/15 19/10/15
f 10/8/16 19/10/16 20/8/16
f 6/6/17 16/4/17 18/6/17
f 22/1/1 23/2/1 21/3/1
f 24/4/2 25/5/2 23/2/2
f 26/6/3 27/7/3 25/5/3
f 22/9/18 40/8/18 37/9/18
f 28/10/5 29/11/5 27/7/5
f 30/8/6 21/12/6 29/11/6
f 29/11/7 34/7/7 27/7/7
f 32/13/8 34/14/8 35/15/8
f 25/5/9 32/2/9 23/2/9
f 29/11/10 31/12/10 35/11/10
f 21/3/11 32/2/11 31/3/11
f 27/7/12 33/5/12 25/5/12
f 37/1/13 39/10/13 38/6/13
f 24/4/19 37/1/19 36/4/19
f 26/6/20 39/10/20 28/10/20
f 28/10/21 40/8/21 30/8/21
f 24/4/22 38/6/22 26/6/22
f 42/1/1 43/2/1 41/3/1
f 44/4/2 45/5/2 43/2/2
f 46/6/3 47/7/3 45/5/3
f 50/8/23 57/9/23 42/9/23
f 48/10/5 49/11/5 47/7/5
f 50/8/6 41/12/6 49/11/6
f 49/11/7 54/7/7 47/7/7
f 52/13/8 54/14/8 55/15/8
f 45/5/9 52/2/9 43/2/9
f 49/11/10 51/12/10 55/11/10
f 41/3/11 52/2/11 51/3/11
f 47/7/12 53/5/12 45/5/12
f 57/1/13 59/10/13 58/6/13
f 44/4/24 57/1/24 56/4/24
f 46/6/25 59/10/25 48/10/25
f 48/10/26 60/8/26 50/8/26
f 46/6/27 56/4/27 58/6/27
f 62/1/1 63/2/1 61/3/1
f 64/4/2 65/5/2 63/2/2
f 66/6/3 67/7/3 65/5/3
f 70/8/28 77/9/28 62/9/28
f 68/10/5 69/11/5 67/7/5
f 70/8/6 61/12/6 69/11/6
f 69/11/7 74/7/7 67/7/7
f 72/13/8 74/14/8 75/15/8
f 65/5/9 72/2/9 63/2/9
f 69/11/10 71/12/10 75/11/10
f 61/3/11 72/2/11 71/3/11
f 67/7/12 73/5/12 65/5/12
f 77/1/13 79/10/13 78/6/13
f 64/4/29 77/1/29 76/4/29
f 66/6/30 79/10/30 68/10/30
f 68/10/31 80/8/31 70/8/31
f 66/6/32 76/4/32 78/6/32
f 97/16/33 83/17/33 81/18/33
f 98/19/34 87/20/34 83/17/34
f 99/21/35 85/22/35 87/20/35
f 100/23/3 81/24/3 85/22/3
f 87/20/8 81/25/8 83/26/8
f 88/27/35 104/28/35 86/28/35
f 90/16/33 91/17/33 89/18/33
f 92/19/34 95/20/34 91/17/34
f 96/21/35 93/22/35 95/20/35
f 94/23/3 89/24/3 93/22/3
f 95/20/8 89/25/8 91/26/8
f 92/29/13 94/23/13 96/21/13
f 84/30/13 97/31/13 82/32/13
f 88/27/13 98/29/13 84/30/13
f 86/28/13 99/21/13 88/27/13
f 82/32/13 100/23/13 86/28/13
f 104/28/36 105/32/36 101/32/36
f 82/32/33 102/30/33 84/30/33
f 86/28/3 101/32/3 82/32/3
f 84/30/34 103/27/34 88/27/34
f 106/30/13 108/28/13 107/27/13
f 102/30/37 107/27/37 103/27/37
f 103/27/38 108/28/38 104/28/38
f 101/32/39 106/30/39 102/30/39
f 2/1/1 4/4/1 3/2/1
f 4/4/2 6/6/2 5/5/2
f 6/6/3 8/10/3 7/7/3
f 10/8/4 20/8/4 17/9/4
f 8/10/5 10/8/5 9/11/5
f 10/8/6 2/9/6 1/12/6
f 9/11/40 15/11/40 14/7/40
f 15/15/8 11/33/8 12/13/8
f 12/13/8 13/34/8 14/14/8
f 5/5/41 13/5/41 12/2/41
f 9/11/42 1/12/42 11/12/42
f 1/3/43 3/2/43 12/2/43
f 7/7/12 14/7/12 13/5/12
f 18/6/13 16/4/13 17/1/13
f 17/1/13 20/8/13 19/10/13
f 2/1/14 17/1/14 16/4/14
f 8/10/15 6/6/15 18/6/15
f 10/8/16 8/10/16 19/10/16
f 6/6/17 4/4/17 16/4/17
f 22/1/1 24/4/1 23/2/1
f 24/4/2 26/6/2 25/5/2
f 26/6/3 28/10/3 27/7/3
f 22/9/18 30/8/18 40/8/18
f 28/10/5 30/8/5 29/11/5
f 30/8/6 22/9/6 21/12/6
f 29/11/40 35/11/40 34/7/40
f 35/15/8 31/33/8 32/13/8
f 32/13/8 33/34/8 34/14/8
f 25/5/41 33/5/41 32/2/41
f 29/11/42 21/12/42 31/12/42
f 21/3/43 23/2/43 32/2/43
f 27/7/12 34/7/12 33/5/12
f 38/6/13 36/4/13 37/1/13
f 37/1/13 40/8/13 39/10/13
f 24/4/19 22/1/19 37/1/19
f 26/6/20 38/6/20 39/10/20
f 28/10/21 39/10/21 40/8/21
f 24/4/22 36/4/22 38/6/22
f 42/1/1 44/4/1 43/2/1
f 44/4/2 46/6/2 45/5/2
f 46/6/3 48/10/3 47/7/3
f 50/8/23 60/8/23 57/9/23
f 48/10/5 50/8/5 49/11/5
f 50/8/6 42/9/6 41/12/6
f 49/11/40 55/11/40 54/7/40
f 55/15/8 51/33/8 52/13/8
f 52/13/8 53/34/8 54/14/8
f 45/5/41 53/5/41 52/2/41
f 49/11/42 41/12/42 51/12/42
f 41/3/43 43/2/43 52/2/43
f 47/7/12 54/7/12 53/5/12
f 58/6/13 56/4/13 57/1/13
f 57/1/13 60/8/13 59/10/13
f 44/4/24 42/1/24 57/1/24
f 46/6/25 58/6/25 59/10/25
f 48/10/26 59/10/26 60/8/26
f 46/6/27 44/4/27 56/4/27
f 62/1/1 64/4/1 63/2/1
f 64/4/2 66/6/2 65/5/2
f 66/6/3 68/10/3 67/7/3
f 70/8/28 80/8/28 77/9/28
f 68/10/5 70/8/5 69/11/5
f 70/8/6 62/9/6 61/12/6
f 69/11/40 75/11/40 74/7/40
f 75/15/8 71/33/8 72/13/8
f 72/13/8 73/34/8 74/14/8
f 65/5/41 73/5/41 72/2/41
f 69/11/42 61/12/42 71/12/42
f 61/3/43 63/2/43 72/2/43
f 67/7/12 74/7/12 73/5/12
f 78/6/13 76/4/13 77/1/13
f 77/1/13 80/8/13 79/10/13
f 64/4/29 62/1/29 77/1/29
f 66/6/30 78/6/30 79/10/30
f 68/10/31 79/10/31 80/8/31
f 66/6/32 64/4/32 76/4/32
f 97/16/33 98/19/33 83/17/33
f 98/19/34 99/21/34 87/20/34
f 99/21/35 100/23/35 85/22/35
f 100/23/3 97/35/3 81/24/3
f 87/20/8 85/22/8 81/25/8
f 88/27/35 103/27/35 104/28/35
f 90/16/33 92/19/33 91/17/33
f 92/19/34 96/21/34 95/20/34
f 96/21/35 94/23/35 93/22/35
f 94/23/3 90/35/3 89/24/3
f 95/20/8 93/22/8 89/25/8
f 92/29/13 90/31/13 94/23/13
f 84/30/13 98/29/13 97/31/13
f 88/27/13 99/21/13 98/29/13
f 86/28/13 100/23/13 99/21/13
f 82/32/13 97/31/13 100/23/13
f 104/28/36 108/28/36 105/32/36
f 82/32/33 101/32/33 102/30/33
f 86/28/3 104/28/3 101/32/3
f 84/30/34 102/30/34 103/27/34
f 106/30/13 105/32/13 108/28/13
f 102/30/37 106/30/37 107/27/37
f 103/27/38 107/27/38 108/28/38
f 101/32/39 105/32/39 106/30/39
